<svg width="32" height="32" viewBox="0 0 32 32" xmlns="http://www.w3.org/2000/svg">
<path d="M28 4H4C1.8 4 0 5.8 0 8V23C0 25.2 1.8 27 4 27H28C30.2 27 32 25.2 32 23V8C32 5.8 30.2 4 28 4ZM30 23C30 24.1 29.1 25 28 25H4C2.9 25 2 24.1 2 23V8C2 6.9 2.9 6 4 6H28C29.1 6 30 6.9 30 8V23Z" fill="black"/>
<path d="M26.3999 9.2L15.9999 17.7L5.59993 9.2C5.19993 8.9 4.59993 8.9 4.19993 9.4C3.89993 9.8 3.89993 10.5 4.29993 10.8L15.2999 19.8C15.4999 20 15.6999 20 15.8999 20C16.0999 20 16.2999 19.9 16.4999 19.8L27.4999 10.8C27.8999 10.5 27.9999 9.8 27.5999 9.4C27.1999 9 26.7999 8.9 26.3999 9.2Z" fill="black"/>
</svg>
